<?xml version="1.0" encoding="iso-8859-1"?>
<!-- Generator: Adobe Illustrator 16.0.0, SVG Export Plug-In . SVG Version: 6.00 Build 0)  -->
<!DOCTYPE svg PUBLIC "-//W3C//DTD SVG 1.1//EN" "http://www.w3.org/Graphics/SVG/1.1/DTD/svg11.dtd">
<svg version="1.1" id="Capa_1" xmlns="http://www.w3.org/2000/svg" xmlns:xlink="http://www.w3.org/1999/xlink" x="0px" y="0px"
	 width="414.065px" height="414.064px" viewBox="0 0 414.065 414.064" style="enable-background:new 0 0 414.065 414.064;"
	 xml:space="preserve">
<g>
	<g>
		<g id="Layer_5_87_">
			<g>
				<path d="M251.948,286.342c4.427,2.147,10.875,2.523,13.3-3.205c25.512-60.286,87.315-209.611,87.315-209.611
					c1.754-4.497-0.375-9.884-4.729-11.969L221.203,0.888c-4.354-2.085-9.886-0.368-12.291,3.815
					c0,0-78.389,141.583-107.955,198.096c-2.826,5.402-1.744,9.614,2.6,11.725C147.553,235.898,200.016,261.131,251.948,286.342z"/>
				<path d="M92.116,228.669c-2.178-1.043-4.9-0.16-6.053,1.961l-9.941,18.298c-1.152,2.121-1.705,5.792-1.232,8.157l14.338,53.236
					c0.617,2.333,2.902,5.096,5.078,6.139l87.061,41.709c2.176,1.042,5.826,1.262,8.113,0.484l47.146-15.723
					c2.231-0.914,4.822-3.482,5.752-5.711l11.041-26.416c0.93-2.229-0.09-4.9-2.267-5.943L92.116,228.669z"/>
				<path d="M91.174,344.753c2.021-4.221,7.127-6.019,11.346-3.996l53.65,25.701c4.219,2.021,5.752,6.986,3.406,11.035
					l-16.924,29.211c-2.346,4.049-8.092,7.36-12.771,7.36H66.473c-4.678,0-6.852-3.452-4.83-7.672L91.174,344.753z"/>
			</g>
		</g>
	</g>
</g>
<g>
</g>
<g>
</g>
<g>
</g>
<g>
</g>
<g>
</g>
<g>
</g>
<g>
</g>
<g>
</g>
<g>
</g>
<g>
</g>
<g>
</g>
<g>
</g>
<g>
</g>
<g>
</g>
<g>
</g>
</svg>
