<svg width="512" height="512" viewBox="0 0 512 512" fill="none" xmlns="http://www.w3.org/2000/svg">
<rect width="512" height="512" fill="#0B0B0B"/>
<rect width="256" height="256" fill="#0B0B0B"/>
<g clip-path="url(#clip0_261_6485)">
<path d="M431.519 304.966L417.597 280.733L350.26 321.759L425.051 226.504L436.358 219.867L433.56 215.662L438.697 209.096L415.097 189.445L404.295 203.215L186.253 330.829L266.869 233.849L417.024 151.513L402.758 123.926L320.972 168.755L361.246 120.336L338.174 100L247.535 209.026L157.515 258.413L226.435 167.267L269.621 144.782L255.906 116.888L130.085 182.407L164.396 136.987L140.429 117.785L68 213.678L69.1238 214.576L82.6554 242.139L162.951 200.31L89.7653 297.077L101.76 306.69L108.893 320.484L193.431 274.12L100.338 386.121L123.411 406.457L128.044 400.883L352.623 269.018L278.061 364.014L279.277 365.029L279.162 365.1L294.62 392.002L393.791 331.561L355.604 393.207L381.199 410L442 311.863L431.519 304.966Z" fill="white"/>
</g>
<defs>
<clipPath id="clip0_261_6485">
<rect width="374" height="310" fill="white" transform="translate(68 100)"/>
</clipPath>
</defs>
</svg>
