<svg width="48" height="48" viewBox="0 0 48 48" fill="none" xmlns="http://www.w3.org/2000/svg">
<g clip-path="url(#clip0_2_1541)">
<rect width="48" height="48" fill="#0D0E12"/>
<rect width="48" height="48" fill="#0D0E12"/>
<g clip-path="url(#clip1_2_1541)">
<path d="M44.7389 29.4637L43.0638 26.5714L34.9618 31.468L43.9607 20.0988L45.3212 19.3067L44.9845 18.8049L45.6026 18.0212L42.763 15.6757L41.4633 17.3192L15.2282 32.5506L24.9281 20.9755L42.9948 11.1483L41.2784 7.8557L31.4378 13.2062L36.2836 7.4272L33.5075 5L22.6018 18.0127L11.7705 23.9074L20.063 13.0286L25.2592 10.3449L23.609 7.01562L8.4701 14.8357L12.5984 9.41463L9.71466 7.12274L1 18.5681L1.13522 18.6752L2.76335 21.965L12.4245 16.9725L3.61881 28.5221L5.06206 29.6695L5.92028 31.3158L16.092 25.782L4.89097 39.1499L7.66708 41.5771L8.2245 40.9118L35.246 25.1731L26.2747 36.5113L26.421 36.6325L26.4072 36.641L28.2671 39.8519L40.1994 32.6379L35.6048 39.9957L38.6844 42L46 30.2869L44.7389 29.4637Z" fill="white"/>
</g>
</g>
<defs>
<clipPath id="clip0_2_1541">
<rect width="48" height="48" fill="white"/>
</clipPath>
<clipPath id="clip1_2_1541">
<rect width="45" height="37" fill="white" transform="translate(1 5)"/>
</clipPath>
</defs>
</svg>
