<svg width="164" height="164" viewBox="0 0 164 164" fill="none" xmlns="http://www.w3.org/2000/svg">
<path d="M148.536 81.9086L148.401 83.3555L153.178 83.7989C153.515 83.9975 153.804 84.2886 154.046 84.6719C154.292 85.0609 154.394 85.4836 154.352 85.94C154.303 86.469 154.129 86.8529 153.829 87.0919C153.529 87.3361 153.066 87.429 152.438 87.3708L148.066 86.965L147.931 88.4197L152.739 88.8659C153.085 89.0759 153.374 89.3512 153.604 89.6916C153.839 90.0325 153.933 90.4518 153.887 90.9497C153.836 91.4942 153.658 91.8909 153.353 92.1398C153.052 92.3892 152.596 92.4854 151.984 92.4286L147.597 92.0214L147.462 93.4761L152.028 93.8999C152.957 93.9861 153.668 93.8141 154.163 93.3841C154.663 92.9545 154.949 92.3612 155.019 91.604C155.078 90.9661 154.992 90.401 154.76 89.9088C154.533 89.4222 154.227 89.0328 153.841 88.7407L153.842 88.7329C154.285 88.638 154.654 88.4081 154.949 88.0433C155.25 87.6788 155.428 87.1933 155.485 86.5865C155.538 86.0108 155.451 85.4849 155.223 85.0087C155 84.533 154.711 84.1557 154.355 83.8768L154.357 83.8612L155.516 83.9688L155.646 82.5686L148.536 81.9086Z" fill="black"/>
<path d="M149.155 95.0707C148.48 94.8933 147.9 94.9779 147.416 95.3245C146.937 95.6724 146.59 96.2544 146.376 97.0705C146.184 97.8009 146.15 98.4302 146.275 98.9585C146.404 99.4932 146.602 99.8979 146.869 100.173C146.622 100.129 146.396 100.108 146.191 100.108C145.991 100.109 145.816 100.13 145.665 100.171L145.304 101.547L145.417 101.576C145.65 101.53 145.914 101.521 146.208 101.55C146.5 101.584 146.803 101.642 147.115 101.724L150.123 102.514C150.974 102.738 151.645 102.643 152.136 102.228C152.632 101.82 153.013 101.107 153.28 100.089C153.544 99.0867 153.552 98.2568 153.305 97.5994C153.057 96.942 152.647 96.5379 152.072 96.3869L151.8 96.3154L151.445 97.6357L151.649 97.6893C152.007 97.7833 152.246 98.0023 152.365 98.346C152.49 98.6912 152.475 99.1584 152.32 99.7478C152.154 100.377 151.93 100.792 151.645 100.992C151.361 101.192 151.013 101.238 150.6 101.129L149.92 100.951L150.539 98.6253C150.796 97.6696 150.798 96.8813 150.547 96.2605C150.294 95.6448 149.83 95.2482 149.155 95.0707ZM148.858 96.4789C149.271 96.5875 149.537 96.8244 149.656 97.1896C149.779 97.5613 149.747 98.094 149.559 98.7878L149.043 100.72L148.295 100.523C147.822 100.399 147.483 100.049 147.279 99.4728C147.074 98.9018 147.048 98.3242 147.201 97.7399C147.342 97.2059 147.552 96.8358 147.832 96.6295C148.118 96.4245 148.46 96.3743 148.858 96.4789Z" fill="black"/>
<path d="M148.289 103.91C147.263 103.489 146.321 103.433 145.463 103.74C144.608 104.054 143.981 104.7 143.58 105.678C143.331 106.285 143.23 106.84 143.277 107.344C143.322 107.852 143.448 108.278 143.656 108.622L143.653 108.63L142.728 108.25L142.195 109.552L152.72 113.865L153.256 112.557L148.507 110.61C148.86 110.518 149.221 110.303 149.59 109.965C149.963 109.633 150.276 109.157 150.531 108.535C150.928 107.566 150.931 106.667 150.539 105.837C150.153 105.008 149.465 104.392 148.477 103.987L148.289 103.91ZM147.734 105.286L147.885 105.349C148.57 105.629 149.062 106.028 149.362 106.545C149.666 107.069 149.662 107.709 149.352 108.466C149.143 108.977 148.857 109.372 148.495 109.651C148.131 109.935 147.772 110.095 147.42 110.131L144.738 109.032C144.511 108.776 144.351 108.417 144.258 107.957C144.17 107.499 144.238 106.997 144.461 106.453C144.763 105.716 145.202 105.262 145.778 105.093C146.354 104.924 147.006 104.988 147.734 105.286Z" fill="black"/>
<path d="M144.5 112.926C143.516 112.359 142.562 112.209 141.639 112.477C140.718 112.752 139.95 113.421 139.337 114.487C138.858 115.317 138.613 116.05 138.601 116.687C138.587 117.327 138.707 117.86 138.962 118.283L139.993 117.605C139.843 117.302 139.778 116.935 139.799 116.502C139.824 116.072 139.995 115.581 140.312 115.031C140.708 114.345 141.209 113.933 141.817 113.796C142.429 113.662 143.076 113.791 143.757 114.184L144.015 114.332C144.642 114.693 145.052 115.161 145.244 115.734C145.434 116.313 145.33 116.947 144.933 117.637C144.538 118.323 144.088 118.713 143.583 118.807C143.078 118.901 142.611 118.825 142.182 118.578L142.148 118.558L144.78 113.989L143.975 113.525L140.633 119.326L141.033 119.556C141.989 120.108 142.897 120.269 143.755 120.042C144.61 119.82 145.327 119.208 145.904 118.206C146.489 117.19 146.667 116.208 146.438 115.259C146.211 114.317 145.619 113.57 144.662 113.019L144.5 112.926Z" fill="black"/>
<path d="M140.96 125.83L134.001 122.895L132.948 124.07L135.478 128.972C135.531 129.069 135.582 129.153 135.63 129.224C135.678 129.303 135.731 129.385 135.787 129.47L135.761 129.499C135.673 129.449 135.588 129.403 135.505 129.364C135.422 129.331 135.329 129.294 135.227 129.252L130.084 127.264L129.047 128.422L132.715 135.026L133.592 134.049L131.01 129.415C130.933 129.298 130.859 129.182 130.786 129.068C130.717 128.957 130.659 128.863 130.61 128.784L130.631 128.761C130.714 128.801 130.814 128.845 130.931 128.894C131.045 128.947 131.175 129.004 131.322 129.066L136.303 131.024L137.299 129.913L134.838 125.157C134.761 125.024 134.691 124.903 134.63 124.792C134.569 124.688 134.512 124.592 134.459 124.502L134.48 124.479C134.575 124.522 134.675 124.57 134.781 124.623C134.888 124.684 135.011 124.745 135.151 124.808L140.032 126.865L140.96 125.83Z" fill="black"/>
<path d="M126.472 130.761L125.365 131.738L130.093 137.09L131.199 136.112L126.472 130.761ZM133.092 137.995C132.93 137.811 132.733 137.707 132.503 137.681C132.272 137.656 132.047 137.74 131.828 137.933C131.61 138.126 131.499 138.339 131.496 138.571C131.488 138.807 131.566 139.016 131.728 139.2C131.893 139.387 132.088 139.49 132.312 139.507C132.536 139.525 132.757 139.437 132.976 139.244C133.195 139.051 133.309 138.838 133.32 138.606C133.33 138.382 133.254 138.178 133.092 137.995Z" fill="black"/>
<path d="M128.186 137.26L124.102 140.393L124.806 141.311L128.89 138.177L128.186 137.26ZM124.647 135.15C124.143 134.493 123.625 134.142 123.092 134.098C122.563 134.058 122.037 134.238 121.517 134.637C121.207 134.875 120.981 135.077 120.84 135.244C120.696 135.408 120.587 135.551 120.511 135.675L121.228 136.493C121.294 136.383 121.374 136.273 121.466 136.163C121.562 136.056 121.697 135.937 121.87 135.804C122.18 135.566 122.473 135.469 122.75 135.513C123.026 135.557 123.337 135.804 123.683 136.254L128.163 142.093L129.278 141.237L127.509 138.931L127.482 138.844L124.647 135.15Z" fill="black"/>
<path d="M119.425 136.427L118.185 137.185L120.685 141.278C120.723 141.701 120.641 142.126 120.439 142.555C120.235 142.99 119.909 143.345 119.46 143.619C119.007 143.896 118.584 143.978 118.19 143.864C117.8 143.754 117.449 143.444 117.137 142.933L114.864 139.213L113.618 139.974L116.004 143.881C116.493 144.681 117.055 145.152 117.691 145.295C118.326 145.444 118.99 145.307 119.683 144.884C120.23 144.55 120.639 144.141 120.911 143.658C121.186 143.178 121.324 142.734 121.324 142.325L124.114 146.892L125.354 146.135L119.425 136.427Z" fill="black"/>
<path d="M108.739 142.28L107.403 142.851L111.873 153.311L113.21 152.74L108.739 142.28Z" fill="black"/>
<path d="M107.126 146.853C106.784 145.787 106.171 145.042 105.286 144.62C104.397 144.2 103.379 144.173 102.233 144.54C101.088 144.907 100.278 145.519 99.803 146.377C99.3235 147.236 99.2546 148.199 99.5962 149.265L99.6534 149.444C99.9871 150.485 100.599 151.217 101.488 151.637C102.374 152.064 103.39 152.094 104.536 151.727C105.677 151.362 106.486 150.747 106.964 149.883C107.444 149.024 107.516 148.073 107.183 147.032L107.126 146.853ZM105.771 147.492C105.999 148.201 105.985 148.84 105.729 149.409C105.469 149.979 104.957 150.386 104.193 150.631C103.414 150.881 102.756 150.848 102.218 150.534C101.674 150.221 101.289 149.71 101.062 149.001L100.995 148.793C100.766 148.078 100.781 147.431 101.038 146.851C101.29 146.273 101.805 145.859 102.584 145.609C103.348 145.364 104.002 145.401 104.547 145.719C105.088 146.043 105.474 146.562 105.702 147.276L105.771 147.492Z" fill="black"/>
<path d="M99.9914 152.919L95.429 146.532L94.0256 146.806L92.2079 154.434L93.5805 154.167L94.812 148.841C94.8507 148.659 94.8796 148.507 94.8986 148.387C94.9186 148.271 94.9401 148.164 94.963 148.064L95.0014 148.056C95.0602 148.14 95.121 148.235 95.1838 148.339C95.2466 148.444 95.3302 148.573 95.4346 148.728L98.5497 153.199L99.9914 152.919Z" fill="black"/>
<path d="M91.117 150.91C91.0338 149.778 90.6224 148.905 89.8827 148.29C89.1383 147.682 88.1531 147.423 86.9272 147.513C85.9715 147.583 85.2269 147.792 84.6936 148.139C84.1552 148.486 83.7823 148.885 83.575 149.333L84.7142 149.806C84.8806 149.512 85.1488 149.252 85.5186 149.026C85.8889 148.806 86.3909 148.672 87.0246 148.626C87.8142 148.568 88.4361 148.752 88.8904 149.178C89.3451 149.609 89.6012 150.217 89.6588 151.002L89.6805 151.298C89.7336 152.02 89.5767 152.621 89.2099 153.103C88.8379 153.584 88.2546 153.854 87.4598 153.913C86.6703 153.971 86.095 153.817 85.7339 153.452C85.3729 153.087 85.1743 152.657 85.138 152.164L85.1352 152.125L90.3944 151.739L90.3264 150.812L83.649 151.302L83.6828 151.762C83.7636 152.863 84.1388 153.705 84.8083 154.288C85.4725 154.871 86.3813 155.12 87.5344 155.035C88.7031 154.949 89.6161 154.546 90.2733 153.824C90.9258 153.107 91.2115 152.198 91.1307 151.097L91.117 150.91Z" fill="black"/>
<path d="M73.9198 150.611C74.0704 149.665 74.0022 148.884 73.7152 148.269C73.423 147.653 72.9554 147.293 72.3124 147.191C71.9112 147.127 71.5204 147.197 71.14 147.4C70.7588 147.608 70.4455 147.92 70.2002 148.334C70.0947 147.837 69.8636 147.434 69.5068 147.124C69.1501 146.814 68.6656 146.611 68.0535 146.513C67.0043 146.346 66.0562 146.67 65.2093 147.484C64.3572 148.298 63.8125 149.451 63.575 150.942C63.2885 152.743 63.6552 154.365 64.6753 155.809C65.6954 157.252 67.2239 158.137 69.2607 158.461C71.3902 158.8 73.2887 158.303 74.9564 156.97C76.6241 155.638 77.6299 153.891 77.9738 151.731C78.3177 149.571 77.959 147.765 76.8978 146.315C75.8366 144.865 74.3672 143.99 72.4898 143.691C71.7852 143.579 71.1817 143.543 70.6793 143.585C70.1778 143.621 69.732 143.721 69.3419 143.886L69.1724 144.951C69.5414 144.82 69.9834 144.727 70.4985 144.671C71.0084 144.615 71.6157 144.644 72.3204 144.756C73.8429 144.998 75.0198 145.705 75.8512 146.876C76.6826 148.048 76.9489 149.572 76.6501 151.449C76.3414 153.388 75.5145 154.939 74.1692 156.101C72.8179 157.268 71.237 157.707 69.4265 157.419C67.6828 157.142 66.4131 156.388 65.6172 155.159C64.8205 153.936 64.5421 152.57 64.782 151.063C64.976 149.844 65.3528 148.902 65.9122 148.237C66.4716 147.572 67.0934 147.294 67.7775 147.403C68.255 147.484 68.6126 147.673 68.8502 147.969C69.087 148.27 69.0845 148.75 68.8427 149.408L67.1927 153.86L67.9488 153.98C68.0882 154.197 68.306 154.419 68.6022 154.646C68.8925 154.877 69.2202 155.021 69.5854 155.079C70.5575 155.234 71.4661 154.893 72.3111 154.057C73.151 153.221 73.6872 152.072 73.9198 150.611ZM72.6174 150.443C72.4349 151.59 72.061 152.515 71.4958 153.216C70.9247 153.921 70.3074 154.221 69.6439 154.115C69.4484 154.084 69.2591 154.015 69.0759 153.906C68.8928 153.798 68.7459 153.677 68.6353 153.544L69.9553 149.972C70.2316 149.23 70.5259 148.724 70.8381 148.452C71.1504 148.18 71.4763 148.071 71.8158 148.125C72.1861 148.184 72.4407 148.406 72.5797 148.792C72.7179 149.183 72.7304 149.734 72.6174 150.443Z" fill="black"/>
<path d="M59.3038 147.248C59.6756 146.252 59.6119 145.358 59.1128 144.568C58.6137 143.777 57.7227 143.114 56.4399 142.577C55.1619 142.042 54.0726 141.899 53.172 142.149C52.2645 142.402 51.6167 142.991 51.2286 143.919C50.8787 144.755 50.8869 145.518 51.2531 146.207C51.6194 146.897 52.3632 147.663 53.4844 148.505C54.51 149.278 55.1725 149.894 55.4718 150.353C55.7691 150.816 55.8172 151.288 55.6161 151.768C55.405 152.273 55.0535 152.6 54.5617 152.75C54.063 152.902 53.3813 152.798 52.5165 152.436C51.6229 152.062 51.0543 151.626 50.8107 151.129C50.5623 150.63 50.5433 150.088 50.7538 149.505L50.8601 149.21L49.5701 148.67L49.4325 149.019C49.0896 149.96 49.1423 150.812 49.5906 151.575C50.0321 152.342 50.863 152.98 52.0833 153.491C53.3084 154.004 54.3443 154.133 55.1909 153.877C56.0326 153.62 56.6305 153.068 56.9844 152.223C57.3363 151.382 57.3305 150.62 56.9671 149.937C56.5988 149.252 55.8584 148.485 54.746 147.635C53.7397 146.87 53.0776 146.259 52.7598 145.805C52.442 145.35 52.3907 144.865 52.6059 144.351C52.8372 143.799 53.2356 143.44 53.8012 143.276C54.3647 143.117 55.1077 143.23 56.0302 143.616C56.943 143.998 57.5579 144.445 57.8748 144.956C58.1869 145.465 58.2149 146.072 57.959 146.778L57.8086 147.198L59.1131 147.744L59.3038 147.248Z" fill="black"/>
<path d="M51.0095 142.688C51.3622 142.086 51.437 141.505 51.2337 140.945C51.0277 140.39 50.5607 139.899 49.8327 139.473C49.1811 139.091 48.584 138.889 48.0416 138.867C47.492 138.847 47.0489 138.929 46.7123 139.112C46.8207 138.885 46.9024 138.674 46.9575 138.477C47.01 138.284 47.0367 138.11 47.0378 137.953L45.8109 137.235L45.7517 137.336C45.7336 137.573 45.6711 137.829 45.5641 138.104C45.4526 138.377 45.3153 138.652 45.1521 138.931L43.5805 141.614C43.1355 142.374 43.0466 143.046 43.3136 143.631C43.5734 144.218 44.1573 144.777 45.0651 145.309C45.9594 145.833 46.7564 146.064 47.4561 146.003C48.1557 145.942 48.6556 145.655 48.9558 145.143L49.0979 144.9L47.9222 144.203L47.8156 144.385C47.6286 144.704 47.3535 144.875 46.9902 144.897C46.6242 144.924 46.1784 144.784 45.6526 144.476C45.0908 144.147 44.7519 143.818 44.6359 143.491C44.5199 143.163 44.5699 142.815 44.7857 142.447L45.1411 141.84L47.2134 143.063C48.0647 143.568 48.8231 143.783 49.4887 143.708C50.1498 143.63 50.6567 143.29 51.0095 142.688ZM49.7336 142.022C49.5177 142.391 49.2178 142.583 48.8339 142.6C48.4428 142.618 47.9385 142.444 47.321 142.076L45.5992 141.058L45.9901 140.391C46.2376 139.968 46.6662 139.737 47.2758 139.695C47.881 139.651 48.4443 139.782 48.9656 140.088C49.4419 140.367 49.7417 140.669 49.8648 140.995C49.9853 141.325 49.9415 141.667 49.7336 142.022Z" fill="black"/>
<path d="M44.3876 136.291L43.2347 135.407L40.3195 139.207C39.9289 139.399 39.4972 139.478 39.0247 139.444C38.5521 139.41 38.1071 139.232 37.6898 138.912C37.2683 138.589 37.04 138.223 37.0049 137.816C36.9624 137.409 37.1251 136.966 37.4929 136.486L40.1417 133.034L38.9888 132.149L36.2021 135.782C35.6314 136.525 35.3941 137.22 35.4902 137.865C35.5789 138.51 35.9457 139.081 36.5903 139.575C37.1068 139.971 37.6381 140.212 38.1841 140.296C38.7259 140.377 39.1998 140.337 39.6058 140.175L39.6182 140.185L38.9191 141.096L40.041 141.957L44.3876 136.291Z" fill="black"/>
<path d="M37.7319 130.941L36.6469 129.94L31.8035 135.187L32.8885 136.188L37.7319 130.941ZM31.2078 138.262C31.3738 138.083 31.4577 137.877 31.4595 137.644C31.4613 137.412 31.355 137.197 31.1407 136.999C30.9264 136.801 30.7035 136.712 30.4721 136.733C30.2369 136.75 30.0363 136.848 29.8702 137.028C29.7006 137.211 29.6185 137.416 29.6238 137.64C29.6291 137.865 29.7389 138.076 29.9532 138.274C30.1675 138.472 30.3905 138.564 30.6222 138.551C30.8466 138.539 31.0417 138.442 31.2078 138.262Z" fill="black"/>
<path d="M31.4443 133.32L27.9111 129.576L27.0701 130.369L30.6032 134.114L31.4443 133.32ZM33.1832 129.585C33.7855 129.017 34.0816 128.466 34.0713 127.931C34.0573 127.4 33.8251 126.896 33.3748 126.419C33.1067 126.134 32.8823 125.931 32.7017 125.808C32.5248 125.681 32.371 125.586 32.2402 125.523L31.4986 126.32C31.6149 126.375 31.7327 126.443 31.8519 126.524C31.9673 126.608 32.1001 126.73 32.2502 126.889C32.5183 127.173 32.6446 127.455 32.6291 127.734C32.6136 128.014 32.3994 128.348 31.9865 128.738L26.6335 133.788L27.5986 134.811L29.7125 132.817L29.7964 132.781L33.1832 129.585Z" fill="black"/>
<path d="M34.5805 123.373C34.5041 123.182 34.4206 123.003 34.33 122.836C34.2436 122.665 34.1235 122.481 33.9699 122.284C33.5763 121.779 33.0841 121.469 32.4934 121.355C31.9035 121.233 31.0987 121.289 30.0788 121.522L21.5857 123.523L22.4355 124.614L27.749 123.337C27.9326 123.293 28.0783 123.255 28.1861 123.224C28.2866 123.192 28.4026 123.155 28.5341 123.112L28.5533 123.136C28.4794 123.253 28.4162 123.359 28.3637 123.452C28.308 123.542 28.2344 123.672 28.1427 123.842L25.5751 128.645L26.4728 129.797L30.1071 122.817L30.1181 122.819C30.9109 122.591 31.5508 122.488 32.0378 122.512C32.5289 122.532 32.9148 122.726 33.1955 123.095C33.2979 123.227 33.3949 123.372 33.4863 123.532C33.5787 123.685 33.662 123.851 33.7361 124.031L34.5805 123.373Z" fill="black"/>
<path d="M26.1923 118.846C26.4072 118.708 26.5477 118.522 26.614 118.287C26.6758 118.056 26.6238 117.811 26.4579 117.552C26.2948 117.298 26.0974 117.149 25.8655 117.106C25.6293 117.066 25.4016 117.116 25.1824 117.257C24.9632 117.397 24.8226 117.583 24.7607 117.815C24.6989 118.046 24.7495 118.289 24.9126 118.543C25.0785 118.802 25.2795 118.952 25.5158 118.992C25.752 119.032 25.9775 118.983 26.1923 118.846Z" fill="black"/>
<path d="M24.468 114.541L23.75 113.251L17.5103 116.723L18.2283 118.013L24.468 114.541ZM15.984 119.459C16.1979 119.339 16.3419 119.17 16.4161 118.95C16.4904 118.73 16.4566 118.492 16.3147 118.237C16.1729 117.982 15.9889 117.829 15.7628 117.776C15.5341 117.718 15.3128 117.749 15.0989 117.868C14.8804 117.989 14.7386 118.158 14.6735 118.373C14.6084 118.588 14.6467 118.823 14.7886 119.078C14.9304 119.333 15.1134 119.49 15.3375 119.55C15.5546 119.608 15.7701 119.578 15.984 119.459Z" fill="black"/>
<path d="M19.7411 113.395C20.7658 112.943 21.4417 112.255 21.7688 111.332C22.0938 110.403 22.0137 109.388 21.5285 108.287C21.0434 107.186 20.3495 106.445 19.4469 106.063C18.5423 105.676 17.5776 105.708 16.5529 106.16L16.3813 106.235C15.3804 106.676 14.7175 107.361 14.3925 108.29C14.0607 109.216 14.1373 110.229 14.6225 111.33C15.1055 112.427 15.8018 113.167 16.7112 113.552C17.6159 113.939 18.5687 113.911 19.5695 113.47L19.7411 113.395ZM18.9638 112.115C18.2823 112.416 17.6454 112.468 17.0532 112.274C16.4589 112.075 16 111.608 15.6766 110.874C15.3468 110.126 15.31 109.468 15.5662 108.9C15.8202 108.327 16.288 107.89 16.9696 107.59L17.1698 107.502C17.8561 107.199 18.5012 107.145 19.105 107.34C19.7067 107.53 20.1725 108 20.5022 108.748C20.8257 109.482 20.858 110.136 20.5991 110.712C20.3334 111.284 19.8574 111.721 19.1711 112.024L18.9638 112.115Z" fill="black"/>
<path d="M17.0108 94.3231L16.8228 93.3165L11.8607 94.1131L13.4062 89.3158L12.4314 88.977L10.6393 93.6739L7.27264 89.9406L6.50161 90.6054L9.65881 94.5244L4.74371 95.5726L4.93172 96.5792L9.89676 95.7983L8.36407 100.577L9.32312 100.919L11.1182 96.2376L14.4819 99.9552L15.2687 99.2874L12.0987 95.3871L17.0108 94.3231Z" fill="black"/>
<path d="M15.4676 82.1394L15.5852 80.691L10.804 80.3029C10.4645 80.1081 10.1717 79.8205 9.92565 79.44C9.67483 79.0538 9.56795 78.6323 9.60504 78.1755C9.64802 77.646 9.81782 77.26 10.1145 77.0176C10.4115 76.77 10.8741 76.6717 11.5022 76.7227L15.8785 77.0779L15.9967 75.6218L11.1844 75.2311C10.8353 75.0251 10.5439 74.7533 10.31 74.4155C10.071 74.0774 9.97166 73.6591 10.0121 73.1607C10.0564 72.6157 10.2298 72.2169 10.5325 71.9645C10.8299 71.7117 11.285 71.6102 11.8975 71.6599L16.2893 72.0164L16.4075 70.5603L11.8366 70.1892C10.9074 70.1138 10.1978 70.294 9.70781 70.7297C9.21263 71.165 8.93428 71.7617 8.87275 72.5196C8.82092 73.1581 8.91361 73.7221 9.15082 74.2117C9.38326 74.6956 9.69421 75.0814 10.0837 75.3691L10.083 75.3769C9.64121 75.4769 9.27471 75.711 8.98354 76.0793C8.68718 76.4471 8.51435 76.9347 8.46504 77.5421C8.41827 78.1183 8.51152 78.6432 8.74481 79.1168C8.9729 79.5899 9.26652 79.9639 9.62568 80.2386L9.62441 80.2542L8.46417 80.16L8.35039 81.5616L15.4676 82.1394Z" fill="black"/>
<path d="M14.6473 69.2138C15.3249 69.381 15.9032 69.2876 16.3821 68.9336C16.856 68.5785 17.1939 67.9913 17.396 67.1721C17.5769 66.4388 17.6008 65.8091 17.4678 65.2827C17.331 64.7501 17.127 64.3484 16.8558 64.0776C17.1035 64.1173 17.3297 64.1355 17.5343 64.1324C17.7339 64.1279 17.9087 64.104 18.0589 64.0606L18.3995 62.6801L18.2857 62.652C18.0534 62.702 17.7901 62.7149 17.4957 62.6905C17.2025 62.6611 16.8992 62.6077 16.5857 62.5304L13.5668 61.7857C12.7122 61.5749 12.0424 61.6806 11.5574 62.1028C11.0685 62.5186 10.6981 63.2373 10.4462 64.2587C10.1979 65.265 10.2024 66.095 10.4596 66.7485C10.7169 67.402 11.1337 67.7999 11.7102 67.9421L11.9832 68.0095L12.3183 66.6839L12.1135 66.6334C11.7544 66.5449 11.5125 66.3296 11.3876 65.9877C11.2577 65.6445 11.2657 65.1771 11.4117 64.5854C11.5676 63.9533 11.7861 63.5352 12.0671 63.3309C12.3482 63.1266 12.696 63.0757 13.1107 63.1779L13.7934 63.3463L13.2095 65.6807C12.9674 66.6402 12.9768 67.4284 13.2377 68.0453C13.4999 68.6572 13.9697 69.0467 14.6473 69.2138ZM14.9233 67.8013C14.5087 67.699 14.2389 67.4662 14.114 67.1028C13.9852 66.733 14.0095 66.1999 14.1867 65.5033L14.6732 63.5634L15.4242 63.7486C15.8995 63.8659 16.2435 64.2109 16.4563 64.7838C16.6703 65.3515 16.7049 65.9287 16.5602 66.5153C16.428 67.0513 16.2233 67.4246 15.946 67.6352C15.6637 67.8445 15.3228 67.8999 14.9233 67.8013Z" fill="black"/>
<path d="M15.345 60.4317C16.3777 60.837 17.3205 60.8797 18.1734 60.5598C19.0234 60.2331 19.6415 59.5776 20.0277 58.5934C20.2674 57.9825 20.36 57.4258 20.3055 56.9232C20.2528 56.4158 20.12 55.9916 19.9069 55.6506L19.9097 55.6433L20.8406 56.0086L21.3543 54.6996L10.7655 50.5442L10.2489 51.8605L15.027 53.7356C14.6756 53.8327 14.3177 54.0531 13.9534 54.3969C13.5861 54.734 13.2798 55.2152 13.0344 55.8406C12.6519 56.8152 12.6626 57.7146 13.0665 58.5389C13.4655 59.3613 14.162 59.9675 15.1559 60.3575L15.345 60.4317ZM15.88 59.0471L15.7273 58.9872C15.0388 58.717 14.5406 58.3256 14.2325 57.8131C13.9216 57.2938 13.9155 56.6536 14.2142 55.8924C14.4159 55.3785 14.6957 54.9791 15.0536 54.6944C15.4134 54.4048 15.7692 54.2395 16.121 54.1985L18.8191 55.2573C19.05 55.5102 19.2153 55.866 19.315 56.3247C19.4099 56.7816 19.3498 57.2839 19.1348 57.8318C18.8437 58.5736 18.4115 59.0334 17.8382 59.2113C17.2648 59.3891 16.6121 59.3344 15.88 59.0471Z" fill="black"/>
<path d="M18.9942 51.3333C19.9864 51.8854 20.9421 52.0209 21.8615 51.7398C22.7789 51.4515 23.5364 50.7704 24.1341 49.6963C24.6 48.8589 24.8343 48.122 24.8367 47.4856C24.8417 46.8446 24.7136 46.3144 24.4523 45.8948L23.432 46.5877C23.5866 46.8883 23.6567 47.2551 23.6422 47.6881C23.6232 48.1186 23.4592 48.6115 23.1502 49.1667C22.7653 49.8585 22.27 50.2773 21.6644 50.4231C21.0542 50.5663 20.4055 50.4467 19.7182 50.0643L19.4588 49.92C18.8262 49.568 18.4094 49.1066 18.2085 48.5358C18.0101 47.9605 18.1046 47.3246 18.4921 46.6283C18.877 45.9365 19.3212 45.54 19.8246 45.4387C20.328 45.3373 20.7959 45.4069 21.2283 45.6475L21.2624 45.6665L18.6982 50.2746L19.5106 50.7266L22.7662 44.8761L22.3634 44.652C21.3986 44.1151 20.4888 43.9665 19.6342 44.2062C18.7822 44.4414 18.075 45.0641 17.5128 46.0745C16.943 47.0985 16.7794 48.0833 17.0221 49.029C17.2628 49.9675 17.8655 50.7053 18.8304 51.2422L18.9942 51.3333Z" fill="black"/>
<path d="M22.3032 38.3873L29.3047 41.22L30.3409 40.0298L27.7397 35.165C27.685 35.0692 27.6331 34.986 27.584 34.9156C27.5343 34.8378 27.4807 34.7566 27.4231 34.672L27.4488 34.6425C27.5371 34.6918 27.6232 34.7356 27.7071 34.7741C27.7904 34.8053 27.8834 34.8413 27.9859 34.8822L33.1573 36.7949L34.1781 35.6223L30.4136 29.0716L29.5518 30.0615L32.2009 34.6571C32.2791 34.7735 32.3554 34.8883 32.4296 35.0012C32.5 35.1108 32.56 35.2045 32.6097 35.2823L32.5891 35.3059C32.5053 35.2674 32.4045 35.2245 32.2868 35.1773C32.1725 35.1261 32.0413 35.0706 31.8931 35.0107L26.8843 33.1255L25.9044 34.2509L28.4348 38.971C28.514 39.1022 28.5851 39.2228 28.6481 39.3328C28.7106 39.4356 28.7689 39.5312 28.823 39.6198L28.8025 39.6433C28.7073 39.6019 28.6063 39.5554 28.4993 39.5037C28.3919 39.4447 28.2678 39.385 28.127 39.3246L23.2164 37.3385L22.3032 38.3873Z" fill="black"/>
<path d="M36.9004 33.0532L37.9963 32.0635L33.2104 26.7641L32.1146 27.7538L36.9004 33.0532ZM30.2015 25.8918C30.3655 26.0735 30.5631 26.1758 30.7943 26.1986C31.0254 26.2214 31.2493 26.1351 31.4657 25.9396C31.6822 25.7441 31.7908 25.5302 31.7916 25.298C31.7962 25.0622 31.7165 24.8535 31.5524 24.6718C31.3848 24.4863 31.189 24.3859 30.9648 24.3708C30.7406 24.3557 30.5203 24.4459 30.3038 24.6414C30.0874 24.8369 29.9751 25.0506 29.967 25.2825C29.9592 25.507 30.0374 25.7102 30.2015 25.8918Z" fill="black"/>
<path d="M35.0894 26.5818L39.1396 23.4034L38.4257 22.4937L34.3755 25.6722L35.0894 26.5818ZM38.6511 28.6528C39.1624 29.3043 39.6846 29.6492 40.2179 29.6875C40.7479 29.7218 41.2711 29.5363 41.7874 29.1312C42.0947 28.89 42.3178 28.6851 42.4569 28.5164C42.5991 28.3518 42.7075 28.2072 42.7818 28.0826L42.0561 27.2717C41.9908 27.3826 41.9125 27.4937 41.8212 27.6051C41.7266 27.7124 41.5933 27.8336 41.4212 27.9686C41.1139 28.2098 40.8218 28.3099 40.5448 28.2691C40.2678 28.2283 39.954 27.9846 39.6035 27.5379L35.0602 21.7484L33.9539 22.6166L35.7481 24.9029L35.7766 24.9898L38.6511 28.6528Z" fill="black"/>
<path d="M43.6421 27.4514L44.871 26.6759L42.3108 22.6193C42.2664 22.1977 42.3421 21.7712 42.5379 21.3397C42.7352 20.901 43.0564 20.5413 43.5012 20.2606C43.9505 19.977 44.3724 19.8893 44.7671 19.9975C45.159 20.1012 45.5148 20.4063 45.8344 20.9128L48.1611 24.5994L49.3966 23.8197L46.9531 19.9481C46.4528 19.1553 45.8835 18.6924 45.2452 18.5594C44.6086 18.4192 43.9468 18.5659 43.2597 18.9996C42.7179 19.3415 42.3145 19.7562 42.0494 20.2438C41.7816 20.7269 41.6505 21.173 41.6561 21.5821L38.7999 17.0565L37.5711 17.832L43.6421 27.4514Z" fill="black"/>
<path d="M54.3659 21.3569L55.6957 20.7709L51.1087 10.3617L49.7789 10.9477L54.3659 21.3569Z" fill="black"/>
<path d="M55.7509 16.8183C56.1086 17.8794 56.7328 18.6144 57.6236 19.0231C58.5193 19.4302 59.5372 19.4416 60.6773 19.0573C61.8174 18.673 62.6182 18.0485 63.0798 17.1839C63.5462 16.3176 63.6006 15.3539 63.2429 14.2928L63.1831 14.1151C62.8337 13.0787 62.2111 12.3569 61.3154 11.9498C60.423 11.5361 59.4067 11.5215 58.2666 11.9058C57.1315 12.2884 56.3315 12.9153 55.8667 13.7865C55.4002 14.6528 55.3416 15.6042 55.691 16.6406L55.7509 16.8183ZM57.0951 16.1591C56.8572 15.4533 56.8616 14.8142 57.1084 14.2419C57.3601 13.6679 57.866 13.2527 58.6261 12.9965C59.4009 12.7353 60.0598 12.7578 60.6027 13.064C61.1506 13.3685 61.5434 13.8736 61.7813 14.5794L61.8512 14.7867C62.0908 15.4974 62.0864 16.1447 61.838 16.7286C61.5946 17.3108 61.0854 17.7325 60.3105 17.9937C59.5505 18.2499 58.8957 18.2233 58.3462 17.9139C57.8 17.5978 57.4071 17.0845 57.1675 16.3738L57.0951 16.1591Z" fill="black"/>
<path d="M63.0728 10.5527L67.7081 16.8864L69.1082 16.5971L70.8385 8.94816L69.469 9.23113L68.2986 14.5706C68.262 14.7537 68.2348 14.9055 68.2172 15.0262C68.1985 15.1417 68.1783 15.2496 68.1565 15.3498L68.1182 15.3577C68.0584 15.2744 67.9965 15.1808 67.9326 15.077C67.8686 14.9732 67.7835 14.8445 67.6773 14.691L64.5112 10.2555L63.0728 10.5527Z" fill="black"/>
<path d="M71.4769 12.5032C71.5775 13.6341 72.0023 14.5009 72.7514 15.1036C73.5051 15.7006 74.4942 15.9447 75.7185 15.8358C76.6731 15.7509 77.4143 15.5308 77.9422 15.1753C78.4753 14.8194 78.842 14.4155 79.0423 13.9637L77.896 13.5088C77.7341 13.8056 77.47 14.0696 77.1036 14.3008C76.7368 14.5269 76.2369 14.6681 75.604 14.7244C74.8154 14.7945 74.1908 14.62 73.7299 14.2009C73.2687 13.7765 73.0032 13.1727 72.9335 12.3893L72.9072 12.0936C72.8431 11.3725 72.9907 10.7685 73.35 10.2816C73.7145 9.79429 74.2937 9.51533 75.0874 9.44474C75.876 9.37461 76.4535 9.51933 76.8202 9.87889C77.1868 10.2384 77.392 10.6647 77.4359 11.1575L77.4393 11.1964L72.1866 11.6635L72.269 12.5896L78.938 11.9965L78.8971 11.5374C78.7993 10.4375 78.4112 9.60144 77.7329 9.02907C77.0597 8.45625 76.1472 8.22104 74.9955 8.32347C73.8283 8.42728 72.9216 8.84517 72.2756 9.57715C71.6343 10.3035 71.3625 11.2166 71.4603 12.3164L71.4769 12.5032Z" fill="black"/>
<path d="M88.6513 12.4559C88.5152 13.4045 88.5954 14.1842 88.8918 14.795C89.1934 15.4066 89.6665 15.7586 90.3109 15.851C90.7131 15.9087 91.1027 15.8331 91.48 15.6242C91.858 15.41 92.1664 15.0939 92.4053 14.6757C92.5185 15.1707 92.7558 15.5704 93.1172 15.8749C93.4787 16.1793 93.9662 16.3755 94.5797 16.4636C95.6314 16.6145 96.5744 16.2762 97.4088 15.4488C98.2482 14.6222 98.7752 13.4613 98.9897 11.9662C99.2487 10.1618 98.8571 8.54549 97.815 7.11737C96.7729 5.68926 95.231 4.82873 93.1894 4.53579C91.055 4.22953 89.1643 4.75538 87.5172 6.11333C85.8702 7.47129 84.8913 9.23292 84.5806 11.3982C84.2699 13.5636 84.6562 15.3632 85.7396 16.7973C86.8229 18.2313 88.3055 19.0833 90.1872 19.3533C90.8935 19.4547 91.4975 19.4808 91.9991 19.4318C92.5 19.3879 92.9442 19.2807 93.3318 19.11L93.4849 18.0428C93.118 18.1796 92.6775 18.2795 92.1633 18.3425C91.6543 18.4063 91.0467 18.3875 90.3404 18.2862C88.8143 18.0672 87.6267 17.3785 86.7774 16.2201C85.9281 15.0617 85.6384 13.5416 85.9085 11.6598C86.1873 9.71618 86.9904 8.15294 88.3177 6.97009C89.6509 5.78282 91.2249 5.31939 93.0396 5.57978C94.7873 5.83056 96.0685 6.56424 96.8832 7.78082C97.6985 8.99224 97.9978 10.3532 97.7811 11.8638C97.6058 13.0857 97.2435 14.0334 96.6944 14.707C96.1452 15.3807 95.5278 15.6683 94.8421 15.5699C94.3634 15.4959 94.0029 15.3127 93.7608 15.0201C93.5194 14.7224 93.5145 14.2429 93.7462 13.5816L95.3278 9.10458L94.5699 8.99583C94.4272 8.78067 94.206 8.56214 93.9063 8.34024C93.6126 8.11394 93.2827 7.97452 92.9166 7.922C91.9422 7.78219 91.039 8.13665 90.2069 8.9854C89.3799 9.8349 88.8614 10.9917 88.6513 12.4559ZM89.9561 12.6036C90.121 11.454 90.4807 10.5243 91.035 9.81456C91.5952 9.10043 92.2079 8.79108 92.873 8.88651C93.0689 8.91462 93.2592 8.9814 93.444 9.08684C93.6289 9.19228 93.7776 9.31096 93.8902 9.44288L92.6251 13.034C92.3602 13.78 92.0738 14.2913 91.7657 14.5681C91.4576 14.8449 91.1335 14.9588 90.7932 14.91C90.422 14.8567 90.164 14.6382 90.0191 14.2543C89.875 13.8653 89.854 13.3151 89.9561 12.6036Z" fill="black"/>
<path d="M103.434 15.5415C103.077 16.5431 103.154 17.4354 103.665 18.2183C104.176 19.0012 105.077 19.6515 106.368 20.1692C107.653 20.685 108.745 20.8112 109.642 20.5481C110.545 20.282 111.184 19.6825 111.558 18.7495C111.896 17.9084 111.876 17.1458 111.499 16.4616C111.123 15.7775 110.368 15.0229 109.234 14.1978C108.197 13.4395 107.525 12.8334 107.219 12.3795C106.915 11.9208 106.86 11.4497 107.054 10.9663C107.257 10.4588 107.604 10.1264 108.093 9.96921C108.59 9.80913 109.273 9.90359 110.143 10.2526C111.042 10.6132 111.617 11.0403 111.868 11.5338C112.124 12.0292 112.151 12.5704 111.949 13.1572L111.848 13.4531L113.145 13.9737L113.278 13.6227C113.607 12.6772 113.541 11.826 113.081 11.0692C112.629 10.3096 111.788 9.68352 110.56 9.19104C109.328 8.69662 108.29 8.58345 107.447 8.85153C106.61 9.12154 106.02 9.68194 105.679 10.5327C105.34 11.3787 105.357 12.1403 105.73 12.8177C106.109 13.497 106.861 14.2531 107.986 15.0859C109.003 15.8364 109.674 16.4367 109.999 16.8867C110.324 17.3368 110.382 17.8204 110.175 18.3376C109.952 18.8935 109.559 19.2578 108.996 19.4304C108.434 19.5981 107.69 19.4959 106.762 19.1236C105.843 18.7552 105.222 18.318 104.897 17.8118C104.578 17.3076 104.54 16.7007 104.786 15.991L104.93 15.569L103.617 15.0426L103.434 15.5415Z" fill="black"/>
<path d="M111.915 19.9961C111.571 20.6034 111.505 21.1854 111.717 21.7421C111.931 22.2942 112.405 22.7781 113.139 23.1938C113.796 23.5659 114.396 23.7589 114.939 23.7729C115.489 23.7849 115.931 23.6969 116.265 23.5089C116.16 23.7367 116.081 23.9496 116.029 24.1475C115.979 24.3408 115.955 24.5157 115.956 24.672L117.194 25.3725L117.251 25.2706C117.266 25.0334 117.325 24.7764 117.427 24.4995C117.535 24.2251 117.668 23.9475 117.827 23.6665L119.359 20.9606C119.793 20.1947 119.872 19.5212 119.596 18.9402C119.328 18.3573 118.736 17.8067 117.82 17.2883C116.918 16.7777 116.118 16.558 115.419 16.6293C114.721 16.7005 114.225 16.9945 113.932 17.5112L113.794 17.7559L114.98 18.4363L115.084 18.2528C115.266 17.931 115.538 17.7561 115.901 17.7282C116.267 17.6957 116.715 17.8296 117.245 18.1298C117.812 18.4506 118.155 18.7738 118.276 19.0996C118.397 19.4253 118.352 19.774 118.142 20.1457L117.795 20.7576L115.705 19.5653C114.847 19.0732 114.085 18.8695 113.421 18.9542C112.761 19.0414 112.259 19.3887 111.915 19.9961ZM113.201 20.6431C113.411 20.2714 113.708 20.0745 114.092 20.0523C114.483 20.0282 114.989 20.1954 115.612 20.554L117.349 21.5462L116.968 22.2192C116.727 22.6453 116.301 22.8834 115.692 22.9337C115.088 22.9864 114.523 22.864 113.997 22.5664C113.517 22.2944 113.213 21.9965 113.085 21.6727C112.959 21.3443 112.998 21.0012 113.201 20.6431Z" fill="black"/>
<path d="M118.606 26.244L119.772 27.1116L122.631 23.2699C123.019 23.0716 123.449 22.9862 123.922 23.0136C124.395 23.0411 124.843 23.2118 125.265 23.5259C125.691 23.8431 125.925 24.2053 125.966 24.6124C126.014 25.0185 125.858 25.4638 125.497 25.9485L122.899 29.4393L124.065 30.3069L126.798 26.6344C127.358 25.8823 127.585 25.1846 127.48 24.5412C127.381 23.8968 127.006 23.332 126.355 22.8469C125.832 22.4582 125.298 22.2258 124.751 22.1496C124.208 22.0766 123.734 22.1237 123.331 22.2908L123.318 22.2814L124.004 21.3602L122.87 20.5159L118.606 26.244Z" fill="black"/>
<path d="M125.441 31.5567L126.541 32.5423L131.307 27.2256L130.208 26.2399L125.441 31.5567ZM131.858 24.1416C131.695 24.3238 131.614 24.5311 131.615 24.7634C131.617 24.9957 131.726 25.2091 131.944 25.4038C132.161 25.5985 132.385 25.6841 132.616 25.6604C132.851 25.6402 133.05 25.5389 133.213 25.3567C133.38 25.1705 133.459 24.9652 133.451 24.7407C133.442 24.5162 133.329 24.3066 133.112 24.1119C132.895 23.9172 132.671 23.828 132.439 23.8443C132.215 23.8602 132.021 23.9593 131.858 24.1416Z" fill="black"/>
<path d="M131.693 29.0722L135.28 32.7652L136.11 31.9596L132.523 28.2665L131.693 29.0722ZM130.009 32.8322C129.415 33.4092 129.127 33.9649 129.145 34.4992C129.166 35.0299 129.406 35.5306 129.863 36.0014C130.135 36.2816 130.363 36.4819 130.545 36.6024C130.724 36.7266 130.879 36.8191 131.011 36.8799L131.741 36.0728C131.623 36.0196 131.505 35.9534 131.384 35.8743C131.268 35.7916 131.133 35.6718 130.981 35.5148C130.709 35.2346 130.578 34.9547 130.59 34.6749C130.601 34.3951 130.81 34.0575 131.218 33.6619L136.497 28.5342L135.517 27.5255L133.432 29.5505L133.349 29.5879L130.009 32.8322Z" fill="black"/>
<path d="M128.845 39.1968C128.924 39.3873 129.009 39.5657 129.102 39.7318C129.19 39.9012 129.312 40.0836 129.468 40.2792C129.867 40.7802 130.362 41.0847 130.954 41.1924C131.546 41.3075 132.35 41.2429 133.367 40.9986L141.838 38.9054L140.976 37.8238L135.677 39.1586C135.494 39.2045 135.348 39.2437 135.241 39.276C135.141 39.3092 135.025 39.348 134.894 39.3924L134.875 39.368C134.947 39.2502 135.009 39.1442 135.061 39.0499C135.116 38.9597 135.188 38.8289 135.278 38.6575L137.793 33.8274L136.882 32.6847L133.325 39.7039L133.314 39.7027C132.523 39.9394 131.884 40.0487 131.397 40.0306C130.906 40.0157 130.518 39.8254 130.233 39.4596C130.129 39.3292 130.031 39.1847 129.938 39.0259C129.844 38.8744 129.759 38.7091 129.682 38.53L128.845 39.1968Z" fill="black"/>
<path d="M137.354 43.7102C137.14 43.8503 137.002 44.0379 136.938 44.2729C136.879 44.5051 136.934 44.7496 137.102 45.0064C137.268 45.2589 137.467 45.4054 137.7 45.446C137.936 45.4837 138.163 45.431 138.381 45.288C138.599 45.145 138.737 44.9574 138.797 44.7252C138.856 44.493 138.803 44.2507 138.637 43.9983C138.468 43.7414 138.265 43.5942 138.029 43.5565C137.792 43.5188 137.567 43.57 137.354 43.7102Z" fill="black"/>
<path d="M139.126 47.9861L139.858 49.2684L146.059 45.7275L145.327 44.4452L139.126 47.9861ZM147.555 42.9749C147.342 43.0963 147.2 43.2675 147.128 43.4884C147.057 43.7093 147.093 43.9464 147.238 44.1997C147.382 44.4529 147.568 44.6048 147.795 44.6553C148.024 44.7103 148.245 44.677 148.458 44.5557C148.675 44.4317 148.815 44.2618 148.877 44.0461C148.94 43.8303 148.899 43.5958 148.754 43.3425C148.61 43.0893 148.425 42.9338 148.2 42.8763C147.983 42.8206 147.767 42.8535 147.555 42.9749Z" fill="black"/>
<path d="M143.752 48.8504C142.734 49.3172 142.069 50.0149 141.755 50.9436C141.444 51.877 141.54 52.8905 142.041 53.9841C142.543 55.0777 143.247 55.8088 144.156 56.1773C145.066 56.5506 146.03 56.5038 147.048 56.037L147.218 55.9589C148.212 55.5029 148.865 54.8083 149.176 53.8749C149.494 52.9441 149.403 51.9318 148.901 50.8382C148.402 49.7493 147.694 49.0194 146.779 48.6483C145.869 48.275 144.917 48.3163 143.923 48.7723L143.752 48.8504ZM144.548 50.1183C145.225 49.8078 145.861 49.7453 146.457 49.9308C147.054 50.1211 147.519 50.5808 147.854 51.3098C148.195 52.0531 148.241 52.7107 147.994 53.2827C147.748 53.8594 147.287 54.303 146.61 54.6134L146.411 54.7046C145.729 55.0173 145.085 55.0806 144.478 54.8947C143.874 54.7135 143.401 54.2513 143.06 53.508C142.726 52.779 142.684 52.125 142.934 51.5461C143.191 50.9698 143.661 50.5253 144.343 50.2127L144.548 50.1183Z" fill="black"/>
<path d="M146.78 67.8546L146.983 68.8582L151.933 67.9859L150.461 72.8062L151.441 73.1301L153.161 68.4064L156.584 72.0878L157.345 71.4112L154.128 67.541L159.027 66.4177L158.823 65.4141L153.871 66.2708L155.33 61.4693L154.366 61.1423L152.643 65.8503L149.223 62.1845L148.446 62.8643L151.675 66.7157L146.78 67.8546Z" fill="black"/>
<g clip-path="url(#clip0_198_2207)">
<path d="M68.9434 65.6177C68.9434 71.4606 72.6161 74.9372 79.9689 76.7704L87.7603 78.5452C94.719 80.1155 98.9567 84.0157 98.9567 90.3699C99.0108 93.1382 98.0948 95.8405 96.3621 98.0242C96.3621 91.6846 93.024 88.2592 84.9723 86.1995L77.3222 84.4904C71.1961 83.1174 66.4677 79.911 66.4677 73.009C66.4355 70.3437 67.3064 67.7434 68.9434 65.6177" fill="#121923"/>
<path opacity="0.7" d="M91.5743 88.8144C94.8975 90.9033 96.3547 93.8248 96.3547 98.0171C93.6039 101.479 88.7714 103.422 83.0914 103.422C73.5306 103.422 66.8395 98.7986 65.3526 90.7645H74.5343C75.7164 94.4529 78.8463 96.1619 83.0245 96.1619C88.1246 96.1619 91.5148 93.4888 91.5817 88.7998" fill="#121923"/>
<path opacity="0.7" d="M73.7164 74.28C72.1989 73.394 70.9539 72.1208 70.1136 70.5957C69.2732 69.0706 68.8689 67.3504 68.9435 65.6178C71.5976 62.185 76.2145 60.0889 81.8424 60.0889C91.5817 60.0889 97.2171 65.143 98.6073 72.2568H89.7751C88.8011 69.4522 86.3626 67.2684 81.9168 67.2684C77.1661 67.2684 73.9246 69.9854 73.7387 74.28" fill="#121923"/>
</g>
<defs>
<clipPath id="clip0_198_2207">
<rect width="35.0578" height="43.8222" fill="white" transform="translate(64.6222 60.0889)"/>
</clipPath>
</defs>
</svg>
